<!-- ClawForge — Lobster Mascot Icon, transparent background -->
<!-- Line-art style matching Catnip AI cat. viewBox 0 0 48 48. Scale to any size. -->
<!-- Apache 2.0 — Wu_JiaDe / ClawForge -->
<svg xmlns="http://www.w3.org/2000/svg" viewBox="0 0 48 48" width="256" height="256" fill="none"
     stroke="#e5e5e5" stroke-width="2.2" stroke-linecap="round" stroke-linejoin="round">
  <!-- Left antenna -->
  <path d="M16,16 Q12,4 8,8" stroke-width="1.8"/>
  <circle cx="7.5" cy="8.5" r="1.5" fill="#e5e5e5" stroke="none"/>
  <!-- Right antenna -->
  <path d="M32,16 Q36,4 40,8" stroke-width="1.8"/>
  <circle cx="40.5" cy="8.5" r="1.5" fill="#e5e5e5" stroke="none"/>
  <!-- Head / body -->
  <ellipse cx="24" cy="26" rx="14" ry="12"/>
  <!-- Eyes -->
  <circle cx="19" cy="24" r="2.2" fill="#e5e5e5" stroke="none"/>
  <circle cx="29" cy="24" r="2.2" fill="#e5e5e5" stroke="none"/>
  <!-- Smile -->
  <path d="M20,30 Q24,33 28,30" stroke-width="1.5"/>
  <!-- Left claw arm -->
  <path d="M10,26 Q4,22 3,18" stroke-width="1.8"/>
  <path d="M3,18 Q1,15 4,14" stroke-width="1.5"/>
  <path d="M3,18 Q2,20 5,19" stroke-width="1.5"/>
  <!-- Right claw arm -->
  <path d="M38,26 Q44,22 45,18" stroke-width="1.8"/>
  <path d="M45,18 Q47,15 44,14" stroke-width="1.5"/>
  <path d="M45,18 Q46,20 43,19" stroke-width="1.5"/>
  <!-- Tail segments -->
  <path d="M24,38 Q24,41 22,43" stroke-width="1.8"/>
  <path d="M22,43 Q20,45 18,44" stroke-width="1.5"/>
  <path d="M22,43 Q24,46 26,44" stroke-width="1.5"/>
  <!-- Body segment lines -->
  <path d="M16,32 Q24,34 32,32" stroke-width="1" opacity="0.4"/>
  <path d="M18,36 Q24,37 30,36" stroke-width="1" opacity="0.3"/>
</svg>
